<svg xmlns="http://www.w3.org/2000/svg" aria-hidden="true">
<symbol id="arrow" viewBox="0 0 32 32"><path d="m19.414 27.414 10-10a2 2 0 0 0 0-2.828l-10-10a2 2 0 1 0-2.828 2.828L23.172 14H4a2 2 0 1 0 0 4h19.172l-6.586 6.586c-.39.39-.586.902-.586 1.414s.195 1.024.586 1.414a2 2 0 0 0 2.828 0z"/></symbol>
<symbol id="home" viewBox="0 0 32 32"><path d="M32 18.451 16 6.031 0 18.451v-5.064L16 .967l16 12.42zM28 18v12h-8v-8h-8v8H4V18l12-9z"/></symbol>
<symbol id="pencil" viewBox="0 0 32 32"><path d="M27 0a5 5 0 0 1 4 8l-2 2-7-7 2-2c.836-.628 1.874-1 3-1zM2 23l-2 9 9-2 18.5-18.5-7-7L2 23zm20.362-11.638-14 14-1.724-1.724 14-14 1.724 1.724z"/></symbol>
<symbol id="pricetag" viewBox="0 0 32 32"><path d="M30.5 0h-12c-.825 0-1.977.477-2.561 1.061L1.06 15.94a1.505 1.505 0 0 0 0 2.121L13.939 30.94a1.505 1.505 0 0 0 2.121 0l14.879-14.879C31.522 15.478 32 14.325 32 13.5v-12c0-.825-.675-1.5-1.5-1.5zM23 12a3 3 0 1 1 0-6 3 3 0 0 1 0 6z"/></symbol>
<symbol id="cart" viewBox="0 0 32 32"><path d="M12 29a3 3 0 1 1-6 0 3 3 0 0 1 6 0zM32 29a3 3 0 1 1-6 0 3 3 0 0 1 6 0zM32 16V4H8a2 2 0 0 0-2-2H0v2h4l1.502 12.877A4 4 0 0 0 8 24h24v-2H8a2 2 0 0 1-2-2v-.02L32 16z"/></symbol>
<symbol id="phone" viewBox="0 0 32 32"><path d="M22 20c-2 2-2 4-4 4s-4-2-6-4-4-4-4-6 2-2 4-4-4-8-6-8-6 6-6 6c0 4 4.109 12.109 8 16s12 8 16 8c0 0 6-4 6-6s-6-8-8-6z"/></symbol>
<symbol id="user" viewBox="0 0 32 32"><path d="M18 22.082v-1.649c2.203-1.241 4-4.337 4-7.432 0-4.971 0-9-6-9s-6 4.029-6 9c0 3.096 1.797 6.191 4 7.432v1.649C7.216 22.637 2 25.97 2 30h28c0-4.03-5.216-7.364-12-7.918z"/></symbol>
<symbol id="quoteleft" viewBox="0 0 32 32"><path d="M7.031 14a7 7 0 1 1-7 7L0 20C0 12.268 6.268 6 14 6v4a9.934 9.934 0 0 0-7.071 2.929 10.24 10.24 0 0 0-.995 1.157A7.081 7.081 0 0 1 7.031 14zm18 0a7 7 0 1 1-7 7L18 20c0-7.732 6.268-14 14-14v4a9.934 9.934 0 0 0-7.071 2.929 10.24 10.24 0 0 0-.995 1.157A7.09 7.09 0 0 1 25.031 14z"/></symbol>
<symbol id="quoteright" viewBox="0 0 32 32"><path d="M25 20a7 7 0 1 1 7-7l.031 1c0 7.732-6.268 14-14 14v-4a9.934 9.934 0 0 0 7.071-2.929c.364-.364.695-.75.995-1.157A7.081 7.081 0 0 1 25 20zM7 20a7 7 0 1 1 7-7l.031 1c0 7.732-6.268 14-14 14v-4a9.934 9.934 0 0 0 7.071-2.929c.364-.364.695-.75.995-1.157A7.081 7.081 0 0 1 7 20z"/></symbol>
<symbol id="search" viewBox="0 0 32 32"><path d="m31.008 27.231-7.58-6.447c-.784-.705-1.622-1.029-2.299-.998a11.954 11.954 0 0 0 2.87-7.787c0-6.627-5.373-12-12-12s-12 5.373-12 12 5.373 12 12 12c2.972 0 5.691-1.081 7.787-2.87-.031.677.293 1.515.998 2.299l6.447 7.58c1.104 1.226 2.907 1.33 4.007.23s.997-2.903-.23-4.007zM12 20a8 8 0 1 1 0-16 8 8 0 0 1 0 16z"/></symbol>
<symbol id="cog" viewBox="0 0 32 32"><path d="M29.181 19.07c-1.679-2.908-.669-6.634 2.255-8.328l-3.145-5.447a6.022 6.022 0 0 1-3.058.829c-3.361 0-6.085-2.742-6.085-6.125h-6.289a6.023 6.023 0 0 1-.811 3.07C10.369 5.977 6.637 6.966 3.709 5.28L.565 10.727a6.023 6.023 0 0 1 2.246 2.234c1.676 2.903.672 6.623-2.241 8.319l3.145 5.447a6.022 6.022 0 0 1 3.044-.82c3.35 0 6.067 2.725 6.084 6.092h6.289a6.032 6.032 0 0 1 .811-3.038c1.676-2.903 5.399-3.894 8.325-2.219l3.145-5.447a6.032 6.032 0 0 1-2.232-2.226zM16 22.479A6.48 6.48 0 1 1 16 9.52a6.48 6.48 0 0 1 0 12.959z"/></symbol>
<symbol id="bin" viewBox="0 0 32 32"><path d="M4 10v20c0 1.1.9 2 2 2h18c1.1 0 2-.9 2-2V10H4zm6 18H8V14h2v14zm4 0h-2V14h2v14zm4 0h-2V14h2v14zm4 0h-2V14h2v14zM26.5 4H20V1.5c0-.825-.675-1.5-1.5-1.5h-7c-.825 0-1.5.675-1.5 1.5V4H3.5C2.675 4 2 4.675 2 5.5V8h26V5.5c0-.825-.675-1.5-1.5-1.5zM18 4h-6V2.025h6V4z"/></symbol>
<symbol id="plus" viewBox="0 0 32 32"><path d="M31 12H20V1a1 1 0 0 0-1-1h-6a1 1 0 0 0-1 1v11H1a1 1 0 0 0-1 1v6a1 1 0 0 0 1 1h11v11a1 1 0 0 0 1 1h6a1 1 0 0 0 1-1V20h11a1 1 0 0 0 1-1v-6a1 1 0 0 0-1-1z"/></symbol>
<symbol id="minus" viewBox="0 0 32 32"><path d="M0 13v6a1 1 0 0 0 1 1h30a1 1 0 0 0 1-1v-6a1 1 0 0 0-1-1H1a1 1 0 0 0-1 1z"/></symbol>
<symbol id="info" viewBox="0 0 32 32"><path d="M14 9.5c0-.825.675-1.5 1.5-1.5h1c.825 0 1.5.675 1.5 1.5v1c0 .825-.675 1.5-1.5 1.5h-1c-.825 0-1.5-.675-1.5-1.5v-1zM20 24h-8v-2h2v-6h-2v-2h6v8h2z"/><path d="M16 0C7.163 0 0 7.163 0 16s7.163 16 16 16 16-7.163 16-16S24.837 0 16 0zm0 29C8.82 29 3 23.18 3 16S8.82 3 16 3s13 5.82 13 13-5.82 13-13 13z"/></symbol>
<symbol id="blocked" viewBox="0 0 32 32"><path d="M27.314 4.686C24.292 1.664 20.274 0 16 0S7.708 1.664 4.686 4.686C1.664 7.708 0 11.726 0 16s1.664 8.292 4.686 11.314C7.708 30.336 11.726 32 16 32s8.292-1.664 11.314-4.686C30.336 24.292 32 20.274 32 16s-1.664-8.292-4.686-11.314zM28 16c0 2.588-.824 4.987-2.222 6.949L9.051 6.222A11.93 11.93 0 0 1 16 4c6.617 0 12 5.383 12 12zM4 16c0-2.588.824-4.987 2.222-6.949l16.727 16.727A11.93 11.93 0 0 1 16 28C9.383 28 4 22.617 4 16z"/></symbol>
<symbol id="cross" viewBox="0 0 32 32"><path d="M31.708 25.708 22 16l9.708-9.708a1 1 0 0 0 0-1.414L27.122.292a1 1 0 0 0-1.414-.001L16 9.999 6.292.291a.998.998 0 0 0-1.414.001L.292 4.878a1 1 0 0 0 0 1.414L10 16 .292 25.708a.999.999 0 0 0 0 1.414l4.586 4.586a1 1 0 0 0 1.414 0L16 22l9.708 9.708a1 1 0 0 0 1.414 0l4.586-4.586a.999.999 0 0 0 0-1.414z"/></symbol>
<symbol id="checkmark" viewBox="0 0 32 32"><path d="M27 4 12 19l-7-7-5 5 12 12L32 9z"/></symbol>
<symbol id="embed" viewBox="0 0 32 32"><path d="m18 23 3 3 10-10L21 6l-3 3 7 7zM14 9l-3-3L1 16l10 10 3-3-7-7z"/></symbol>
</svg>